<svg width="25" height="25" viewBox="0 0 25 25" fill="none" xmlns="http://www.w3.org/2000/svg">
<g clip-path="url(#clip0_2_157)">
<path d="M9.28241 22.5C9.83469 22.5 10.2824 22.0523 10.2824 21.5C10.2824 20.9477 9.83469 20.5 9.28241 20.5C8.73012 20.5 8.28241 20.9477 8.28241 21.5C8.28241 22.0523 8.73012 22.5 9.28241 22.5Z" stroke="#666666" stroke-width="2" stroke-linecap="round" stroke-linejoin="round"/>
<path d="M20.2824 22.5C20.8347 22.5 21.2824 22.0523 21.2824 21.5C21.2824 20.9477 20.8347 20.5 20.2824 20.5C19.7301 20.5 19.2824 20.9477 19.2824 21.5C19.2824 22.0523 19.7301 22.5 20.2824 22.5Z" stroke="#666666" stroke-width="2" stroke-linecap="round" stroke-linejoin="round"/>
<path d="M1.28241 1.5H5.28241L7.96241 14.89C8.05385 15.3504 8.30432 15.764 8.66996 16.0583C9.03559 16.3526 9.49311 16.509 9.96241 16.5H19.6824C20.1517 16.509 20.6092 16.3526 20.9749 16.0583C21.3405 15.764 21.591 15.3504 21.6824 14.89L23.2824 6.5H6.28241" stroke="#666666" stroke-width="2" stroke-linecap="round" stroke-linejoin="round"/>
</g>
<defs>
<clipPath id="clip0_2_157">
<rect width="24" height="24" fill="white" transform="translate(0.28241 0.5)"/>
</clipPath>
</defs>
</svg>
